<?xml version="1.0" encoding="UTF-8"?>
<!DOCTYPE svg PUBLIC "-//W3C//DTD SVG 1.0//EN" "http://www.w3.org/TR/2001/REC-SVG-20010904/DTD/svg10.dtd">
<!-- Creator: CorelDRAW 2018 (64-Bit) -->
<svg xmlns="http://www.w3.org/2000/svg" xml:space="preserve" width="100%" height="100%" version="1.0" shape-rendering="geometricPrecision" text-rendering="geometricPrecision" image-rendering="optimizeQuality" fill-rule="evenodd" clip-rule="evenodd"
viewBox="0 0 10160 3386.7"
 xmlns:xlink="http://www.w3.org/1999/xlink">
 <defs>
   <mask id="id0">
     <linearGradient id="id1" gradientUnits="userSpaceOnUse" x1="-2744.73" y1="4556.46" x2="3421.54" y2="4556.46">
      <stop offset="0" stop-opacity="0" stop-color="white"/>
      <stop offset="0.611765" stop-opacity="-127.502" stop-color="white"/>
      <stop offset="1" stop-opacity="1" stop-color="white"/>
     </linearGradient>
    <rect fill="url(#id1)" x="-2744.73" y="3767.84" width="6166.2" height="1577.23"/>
   </mask>
   <mask id="id2">
     <linearGradient id="id3" gradientUnits="userSpaceOnUse" x1="14.11" y1="2182.68" x2="10166.52" y2="2182.68">
      <stop offset="0" stop-opacity="0" stop-color="white"/>
      <stop offset="0.168627" stop-opacity="-127.502" stop-color="white"/>
      <stop offset="1" stop-opacity="1" stop-color="white"/>
     </linearGradient>
    <rect fill="url(#id3)" x="14.14" y="1582.53" width="10152.38" height="1200.48"/>
   </mask>
 </defs>
 <g id="Warstwa_x0020_1">
  <metadata id="CorelCorpID_0Corel-Layer"/>
  <polygon fill="#F2F2F2" points="0.33,-0.53 10160.33,-0.53 10160.33,3386.13 0.33,3386.13 "/>
  <path fill="white" mask="url(#id0)" d="M-2562.91 3958.9c0,0 2608.79,-653.6 4919.47,457 1234.11,593.17 1190.22,833.72 881.53,929.17l-1868.95 0 -4113.87 -204.51 181.82 -1181.66z"/>
  <path fill="white" d="M9965.16 2040.17c0,0 -430.43,-30.34 -1057.51,-2.03l26.53 31.88c8.61,10.35 10.35,23.88 4.64,36.07 -5.72,12.19 -17.24,19.51 -30.69,19.51l-311.74 0 -311.73 0c-13.45,0 -24.97,-7.32 -30.69,-19.51 -2.99,-6.38 -3.94,-13.12 -2.93,-19.59 -644.54,66.38 -1384.06,200.83 -2057.38,464.92 -1284.79,503.92 -3655.89,87.24 -5108.33,-431.33l9.7 11.65c10.19,12.24 12.25,28.26 5.49,42.67 -6.76,14.42 -20.39,23.08 -36.31,23.08l-453 0 -452.99 0c-15.92,0 -29.55,-8.66 -36.31,-23.08 -6.76,-14.42 -4.7,-30.43 5.49,-42.67l214.55 -257.86 18.78 -22.57 -56.29 0c-15.92,0 -29.55,-8.66 -36.31,-23.08 -6.75,-14.42 -4.69,-30.43 5.49,-42.67l10.43 -12.54c-83.89,-46.1 -157.61,-91.62 -219.1,-135.96 -27.87,-20.11 -54.65,-36.71 -80.38,-50.09l0 1795.35 10181.95 0 0 -1335.26 -201.36 -6.89z"/>
  <path fill="#CCCCCC" fill-rule="nonzero" mask="url(#id2)" d="M9965.5 2043.97c-2.73,-0.18 -431.26,-30.47 -1054.88,-2.26l-6.09 -7.32c627.21,-28.68 1058.71,1.8 1061.45,1.98l200.54 6.88 0 7.61 -201.02 -6.89zm-1714.83 46.68c-640.53,66.56 -1374.67,200.98 -2044.09,464.31 -730.46,287.34 -1812.47,275.69 -2876.24,116.52 -1377.06,-206.04 -2724.01,-659.4 -3238.28,-1031.34 -27,-19.53 -52.95,-35.71 -77.92,-48.83l0 -8.78c26.33,13.65 53.8,30.78 82.38,51.45 513.45,371.35 1858.97,824.09 3234.92,1029.96 1062.66,159 2143.3,170.73 2872.38,-116.06 670.78,-263.86 1406.45,-398.43 2048,-464.99 -0.7,2.54 -1.08,5.14 -1.15,7.76z"/>
  <path fill="#9D9E9E" d="M4.14 2947.93c277.26,-12.36 3244.12,-135.99 5267.77,136.44 2245.11,233.32 4068.33,158.05 4776.51,-52.69 43.67,-12.99 82.91,-21.59 118.1,-26.3l0 386.94 -10162.38 0 0 -444.39z"/>
  <path fill="#9D9E9E" stroke="white" stroke-width="20" stroke-miterlimit="22.9256" d="M2235.34 2131.17l19.93 23.98 217.65 261.56c12.72,15.29 15.29,35.3 6.85,53.31 -8.44,18.01 -25.47,28.84 -45.36,28.84l-465.11 0 -465.13 0c-19.89,0 -36.91,-10.82 -45.36,-28.83 -8.44,-18.01 -5.87,-38.02 6.85,-53.31l217.64 -261.57 19.94 -23.98 -43.75 0c-19.89,0 -36.92,-10.82 -45.37,-28.83 -8.44,-18.02 -5.87,-38.03 6.86,-53.32l139.99 -168.23 42.85 -51.51 -79.58 0 122.53 -141.35 84.67 -97.66c9.86,-11.37 22.81,-17.28 37.85,-17.28 15.05,0 28,5.91 37.86,17.28l84.66 97.66 122.53 141.35 -79.57 0 42.85 51.51 139.99 168.23c12.73,15.29 15.3,35.3 6.86,53.32 -8.45,18.01 -25.48,28.83 -45.37,28.83l-43.76 0z"/>
  <path fill="#9D9E9E" fill-opacity="0.501961" stroke="white" stroke-width="20" stroke-miterlimit="22.9256" stroke-opacity="0.501961" d="M861.7 1851.31l18.78 22.57 214.55 257.86c10.19,12.24 12.25,28.26 5.49,42.67 -6.76,14.42 -20.39,23.08 -36.31,23.08l-453 0 -452.99 0c-15.92,0 -29.55,-8.66 -36.31,-23.08 -6.76,-14.42 -4.7,-30.43 5.49,-42.67l214.55 -257.86 18.78 -22.57 -56.29 0c-15.92,0 -29.55,-8.66 -36.31,-23.08 -6.75,-14.42 -4.69,-30.43 5.49,-42.67l141.45 -169.99 40.35 -48.5 -74.91 0 115.35 -133.07 85.05 -98.11c7.89,-9.1 18.26,-13.83 30.3,-13.83 12.04,0 22.41,4.73 30.3,13.83l85.06 98.11 115.35 133.07 -74.91 0 40.35 48.5 141.45 169.99c10.18,12.24 12.24,28.25 5.49,42.67 -6.76,14.42 -20.39,23.08 -36.31,23.08l-56.29 0z"/>
  <path fill="#9D9E9E" stroke="white" stroke-width="20" stroke-miterlimit="22.9256" d="M1485.36 2404.25l24.59 29.56 270.6 325.22c15.26,18.34 18.35,42.35 8.22,63.95 -10.13,21.61 -30.56,34.59 -54.42,34.59l-576.99 0 -577 0c-23.86,0 -44.29,-12.98 -54.42,-34.59 -10.13,-21.6 -7.04,-45.61 8.22,-63.95l270.6 -325.22 24.59 -29.56 -57.51 0c-23.86,0 -44.29,-12.98 -54.42,-34.59 -10.12,-21.6 -7.04,-45.61 8.22,-63.95l174.86 -210.15 52.85 -63.51 -98.1 0 151.05 -174.25 105.65 -121.86c11.82,-13.64 27.36,-20.73 45.41,-20.73 18.05,0 33.59,7.09 45.41,20.73l105.64 121.86 151.05 174.25 -98.1 0 52.85 63.51 174.86 210.15c15.26,18.34 18.35,42.34 8.22,63.95 -10.13,21.61 -30.56,34.59 -54.42,34.59l-57.51 0z"/>
  <path fill="#9D9E9E" d="M7916.98 1964.5l11.06 -13.29 34.05 -40.92 -63.2 0 97.31 -112.26 67.02 -77.3c7.89,-9.1 18.26,-13.84 30.3,-13.84 12.04,0 22.41,4.74 30.3,13.84l67.02 77.3 97.31 112.26 -63.2 0 34.05 40.92 24.91 29.93 -195.34 -33.61c-23.85,-4.11 -45.55,-0.98 -67.21,9.67l-11.01 5.41c-30.38,14.94 -64.5,14.81 -93.37,1.89z"/>
  <path fill="#9D9E9E" fill-opacity="0.419608" stroke="white" stroke-width="20" stroke-miterlimit="22.9256" stroke-opacity="0.419608" d="M8775.02 1878.74l13.39 16.09 145.77 175.19c8.61,10.35 10.35,23.88 4.64,36.07 -5.72,12.19 -17.24,19.51 -30.69,19.51l-311.74 0 -311.73 0c-13.45,0 -24.97,-7.32 -30.69,-19.51 -5.71,-12.19 -3.97,-25.72 4.64,-36.07l145.77 -175.19 13.39 -16.09 -28.83 0c-13.46,0 -24.98,-7.32 -30.69,-19.51 -5.72,-12.19 -3.98,-25.73 4.64,-36.07l93.63 -112.53 28.78 -34.59 -53.42 0 82.25 -94.89 56.65 -65.34c6.67,-7.7 15.44,-11.7 25.61,-11.7 10.18,0 18.95,4 25.62,11.7l56.65 65.34 82.25 94.89 -53.42 0 28.78 34.59 93.63 112.53c8.62,10.34 10.36,23.88 4.64,36.07 -5.71,12.19 -17.23,19.51 -30.69,19.51l-28.83 0z"/>
  <path fill="#9D9E9E" stroke="white" stroke-width="20" stroke-miterlimit="22.9256" d="M9690.84 2042.73l26.71 32.1 314.58 378.08c12.72,15.29 15.29,35.3 6.85,53.31 -8.45,18.01 -25.47,28.83 -45.36,28.83l-659 0 -659 0c-19.89,0 -36.91,-10.82 -45.36,-28.83 -8.45,-18.01 -5.87,-38.02 6.85,-53.31l314.58 -378.08 26.71 -32.1 -94.83 0c-19.89,0 -36.92,-10.83 -45.36,-28.84 -8.44,-18.01 -5.87,-38.02 6.85,-53.31l210.61 -253.1 57.39 -68.98 -106.54 0 164.05 -189.24 126.19 -145.56c9.86,-11.37 22.81,-17.29 37.86,-17.29 15.05,0 28,5.92 37.86,17.29l126.19 145.56 164.05 189.24 -106.54 0 57.39 68.98 210.61 253.1c12.72,15.29 15.29,35.3 6.85,53.31 -8.44,18.01 -25.47,28.84 -45.36,28.84l-94.83 0z"/>
  <path id="star-4" fill="none" stroke="#FFFF66" stroke-width="10" stroke-miterlimit="22.9256" d="M8608.31 1232.44l24.57 76.13c1.7,5.26 6.4,8.68 11.94,8.67l79.99 -0.16c5.52,-0.01 10.22,3.4 11.93,8.65 1.7,5.26 -0.1,10.78 -4.57,14.01l-64.81 46.9c-4.48,3.24 -6.27,8.77 -4.55,14.03l24.86 76.03c1.72,5.25 -0.07,10.77 -4.54,14.02 -4.47,3.24 -10.27,3.24 -14.74,-0.02l-64.62 -47.14c-4.47,-3.26 -10.28,-3.26 -14.75,0l-64.63 47.14c-4.46,3.26 -10.26,3.26 -14.73,0.02 -4.47,-3.25 -6.26,-8.77 -4.54,-14.02l24.86 -76.03c1.72,-5.26 -0.08,-10.79 -4.56,-14.03l-64.8 -46.9c-4.48,-3.23 -6.28,-8.75 -4.57,-14.01 1.71,-5.25 6.41,-8.66 11.93,-8.65l79.99 0.16c5.53,0.01 10.24,-3.41 11.94,-8.67l24.57 -76.13c1.7,-5.25 6.39,-8.67 11.91,-8.67 5.53,0 10.22,3.42 11.92,8.67z"/>
  <path id="star-5" fill="none" stroke="yellow" stroke-width="7.62" stroke-miterlimit="22.9256" d="M1981.2 1301.12l24.57 76.13c1.7,5.26 6.4,8.68 11.94,8.67l79.99 -0.16c5.52,-0.01 10.22,3.4 11.93,8.65 1.7,5.26 -0.1,10.78 -4.57,14.01l-64.81 46.9c-4.48,3.24 -6.27,8.77 -4.55,14.03l24.86 76.03c1.72,5.25 -0.07,10.77 -4.54,14.02 -4.47,3.24 -10.27,3.24 -14.74,-0.02l-64.62 -47.14c-4.47,-3.26 -10.28,-3.26 -14.75,0l-64.63 47.14c-4.46,3.26 -10.26,3.26 -14.73,0.02 -4.47,-3.25 -6.26,-8.77 -4.54,-14.02l24.86 -76.03c1.72,-5.26 -0.08,-10.79 -4.56,-14.03l-64.8 -46.9c-4.48,-3.23 -6.28,-8.75 -4.57,-14.01 1.71,-5.25 6.41,-8.66 11.93,-8.65l79.99 0.16c5.53,0.01 10.24,-3.41 11.94,-8.67l24.57 -76.13c1.7,-5.25 6.39,-8.67 11.91,-8.67 5.53,0 10.22,3.42 11.92,8.67z"/>
  <path id="star-2" fill="#FFFF66" stroke="#FFFF66" stroke-width="7.62" stroke-miterlimit="22.9256" d="M8105.44 1444.94l24.57 76.13c1.7,5.26 6.4,8.68 11.94,8.67l79.99 -0.16c5.52,-0.01 10.22,3.4 11.93,8.65 1.7,5.26 -0.1,10.78 -4.57,14.01l-64.81 46.9c-4.48,3.24 -6.27,8.77 -4.55,14.03l24.86 76.03c1.72,5.25 -0.07,10.77 -4.54,14.02 -4.47,3.24 -10.27,3.24 -14.74,-0.02l-64.62 -47.14c-4.47,-3.26 -10.28,-3.26 -14.75,0l-64.63 47.14c-4.46,3.26 -10.26,3.26 -14.73,0.02 -4.47,-3.25 -6.26,-8.77 -4.54,-14.02l24.86 -76.03c1.72,-5.26 -0.08,-10.79 -4.56,-14.03l-64.8 -46.9c-4.48,-3.23 -6.28,-8.75 -4.57,-14.01 1.71,-5.25 6.41,-8.66 11.93,-8.65l79.99 0.16c5.53,0.01 10.24,-3.41 11.94,-8.67l24.57 -76.13c1.7,-5.25 6.39,-8.67 11.91,-8.67 5.53,0 10.22,3.42 11.92,8.67z"/>
  <path id="star-6" fill="none" stroke="yellow" stroke-width="7.62" stroke-miterlimit="22.9256" d="M623.13 1049.63l24.57 76.13c1.7,5.26 6.4,8.68 11.94,8.67l79.99 -0.16c5.52,-0.01 10.22,3.4 11.93,8.65 1.7,5.26 -0.1,10.78 -4.57,14.01l-64.81 46.9c-4.48,3.24 -6.27,8.77 -4.55,14.03l24.86 76.03c1.72,5.25 -0.07,10.77 -4.54,14.02 -4.47,3.24 -10.27,3.24 -14.74,-0.02l-64.62 -47.14c-4.47,-3.26 -10.28,-3.26 -14.75,0l-64.63 47.14c-4.46,3.26 -10.26,3.26 -14.73,0.02 -4.47,-3.25 -6.26,-8.77 -4.54,-14.02l24.86 -76.03c1.72,-5.26 -0.08,-10.79 -4.56,-14.03l-64.8 -46.9c-4.48,-3.23 -6.28,-8.75 -4.57,-14.01 1.71,-5.25 6.41,-8.66 11.93,-8.65l79.99 0.16c5.53,0.01 10.24,-3.41 11.94,-8.67l24.57 -76.13c1.7,-5.25 6.39,-8.67 11.91,-8.67 5.53,0 10.22,3.42 11.92,8.67z"/>
  <path id="star-3" fill="#FFFF66" stroke="#FFFF66" stroke-width="7.62" stroke-miterlimit="22.9256" d="M1169.27 1444.88l24.57 76.13c1.7,5.26 6.4,8.68 11.94,8.67l79.99 -0.16c5.52,-0.01 10.22,3.4 11.93,8.65 1.7,5.26 -0.1,10.78 -4.57,14.01l-64.81 46.9c-4.48,3.24 -6.27,8.77 -4.55,14.03l24.86 76.03c1.72,5.25 -0.07,10.77 -4.54,14.02 -4.47,3.24 -10.27,3.24 -14.74,-0.02l-64.62 -47.14c-4.47,-3.26 -10.28,-3.26 -14.75,0l-64.63 47.14c-4.46,3.26 -10.26,3.26 -14.73,0.02 -4.47,-3.25 -6.26,-8.77 -4.54,-14.02l24.86 -76.03c1.72,-5.26 -0.08,-10.79 -4.56,-14.03l-64.8 -46.9c-4.48,-3.23 -6.28,-8.75 -4.57,-14.01 1.71,-5.25 6.41,-8.66 11.93,-8.65l79.99 0.16c5.53,0.01 10.24,-3.41 11.94,-8.67l24.57 -76.13c1.7,-5.25 6.39,-8.67 11.91,-8.67 5.53,0 10.22,3.42 11.92,8.67z"/>
  <path id="star-1" fill="#FFFF66" d="M9334.59 1003.19c67.96,0 123.01,55.02 123.01,122.92 0,58.62 -40.99,107.62 -95.93,119.94l0 -100.11 -54.07 0 0 100.14c-54.91,-12.3 -95.96,-61.32 -95.96,-119.97 0,-67.9 55.05,-122.92 122.95,-122.92z"/>
  <path fill="#9D9E9E" stroke="white" stroke-width="20" stroke-miterlimit="22.9256" d="M8304.84 2150.09l15.84 19.04 172.45 207.26c10.19,12.24 12.25,28.25 5.49,42.67 -6.76,14.42 -20.39,23.08 -36.31,23.08l-368.79 0 -368.79 0c-15.92,0 -29.55,-8.66 -36.31,-23.08 -6.76,-14.42 -4.7,-30.43 5.49,-42.67l172.45 -207.26 15.84 -19.04 -34.11 0c-15.92,0 -29.55,-8.66 -36.31,-23.08 -6.76,-14.42 -4.7,-30.43 5.49,-42.67l110.77 -133.13 34.05 -40.92 -63.2 0 97.31 -112.26 67.02 -77.3c7.89,-9.1 18.26,-13.84 30.3,-13.84 12.04,0 22.41,4.74 30.3,13.84l67.02 77.3 97.31 112.26 -63.2 0 34.05 40.92 110.77 133.13c10.19,12.24 12.25,28.25 5.49,42.67 -6.76,14.42 -20.39,23.08 -36.31,23.08l-34.11 0z"/>
 </g>
</svg>
